HIERARCHY
ROOT Hips
{
    OFFSET 0.000000 0.000000 0.000000
    CHANNELS 6 Xposition Yposition Zposition Zrotation Xrotation Yrotation
    JOINT Spine
    {
        OFFSET -0.000000 7.570525 0.000000
        CHANNELS 3 Zrotation Xrotation Yrotation
        JOINT Spine1
        {
            OFFSET -0.000000 22.788599 0.000000
            CHANNELS 3 Zrotation Xrotation Yrotation
            JOINT Neck
            {
                OFFSET -0.000000 22.695009 2.063183
                CHANNELS 3 Zrotation Xrotation Yrotation
                JOINT Head
                {
                    OFFSET -0.000000 12.925286 -1.846469
                    CHANNELS 3 Zrotation Xrotation Yrotation
                    End Site
                    {
                        OFFSET -0.000000 23.080868 0.000000
                    }
                }
            }
            JOINT LeftShoulder
            {
                OFFSET 3.700390 21.177364 -0.126673
                CHANNELS 3 Zrotation Xrotation Yrotation
                JOINT LeftArm
                {
                    OFFSET 9.846800 0.000000 0.000000
                    CHANNELS 3 Zrotation Xrotation Yrotation
                    JOINT LeftForeArm
                    {
                        OFFSET 34.583084 0.000000 0.000000
                        CHANNELS 3 Zrotation Xrotation Yrotation
                        JOINT LeftHand
                        {
                            OFFSET 18.297363 0.000000 0.000000
                            CHANNELS 3 Zrotation Xrotation Yrotation
                            End Site
                            {
                                OFFSET 13.848521 0.000000 0.000000
                            }
                        }
                    }
                }
            }
            JOINT RightShoulder
            {
                OFFSET -3.679122 21.177364 -0.126673
                CHANNELS 3 Zrotation Xrotation Yrotation
                JOINT RightArm
                {
                    OFFSET -9.846800 0.000000 0.000000
                    CHANNELS 3 Zrotation Xrotation Yrotation
                    JOINT RightForeArm
                    {
                        OFFSET -34.583084 0.000000 0.000000
                        CHANNELS 3 Zrotation Xrotation Yrotation
                        JOINT RightHand
                        {
                            OFFSET -18.297363 0.000000 0.000000
                            CHANNELS 3 Zrotation Xrotation Yrotation
                            End Site
                            {
                                OFFSET -13.848521 0.000000 0.000000
                            }
                        }
                    }
                }
            }
        }
    }
    JOINT LeftUpLeg
    {
        OFFSET 9.232347 0.000000 0.000000
        CHANNELS 3 Zrotation Xrotation Yrotation
        JOINT LeftLeg
        {
            OFFSET -0.000000 -36.686405 0.000000
            CHANNELS 3 Zrotation Xrotation Yrotation
            JOINT LeftFoot
            {
                OFFSET -0.000000 -39.596695 0.000000
                CHANNELS 3 Zrotation Xrotation Yrotation
                JOINT LeftToeBase
                {
                    OFFSET -0.000000 -6.001025 13.848521
                    CHANNELS 3 Zrotation Xrotation Yrotation
                    End Site
                    {
                        OFFSET -0.000000 0.000000 3.692939
                    }
                }
            }
        }
    }
    JOINT RightUpLeg
    {
        OFFSET -9.232347 0.000000 0.000000
        CHANNELS 3 Zrotation Xrotation Yrotation
        JOINT RightLeg
        {
            OFFSET -0.000000 -36.686405 0.000000
            CHANNELS 3 Zrotation Xrotation Yrotation
            JOINT RightFoot
            {
                OFFSET -0.000000 -39.596695 0.000000
                CHANNELS 3 Zrotation Xrotation Yrotation
                JOINT RightToeBase
                {
                    OFFSET -0.000000 -6.001025 13.848521
                    CHANNELS 3 Zrotation Xrotation Yrotation
                    End Site
                    {
                        OFFSET -0.000000 0.000000 3.692939
                    }
                }
            }
        }
    }
}
MOTION
Frames:    14
Frame Time:    0.008333
0.499492    85.120514    -2.188421    0.133581    -2.682975    0.316793    -1.367842    -2.970782    -0.730338    1.652546    2.393281    -0.729502    -2.826346    14.498280    0.092334    1.510935    -12.325339    0.516482    20.032944    -2.183407    2.695295    -30.182192    2.062304    -6.093724    2.393709    -0.305642    1.502273    -9.405354    -0.093117    -2.965481    -18.570326    -5.350645    3.225947    22.156605    2.712272    8.589887    -1.389478    4.165158    -1.890536    5.472254    4.185653    0.909621    2.255750    11.037325    -4.449089    -3.236922    2.506018    -3.769494    3.737179    -13.231766    18.526628    0.000000    0.000000    0.000000    -5.028925    6.727588    -1.099462    3.109592    5.348408    0.980938    2.042637    -13.155329    -19.300756    0.000000    0.000000    0.000000    
0.499843    85.118904    -2.182017    0.127615    -2.675015    0.323189    -1.380147    -2.993981    -0.736057    1.661715    2.410242    -0.734958    -2.770943    14.460374    0.018960    1.530121    -12.204491    0.442969    20.043699    -2.186915    2.689447    -30.182579    2.084432    -6.096402    2.399355    -0.285847    1.516168    -9.387843    -0.075495    -2.948131    -18.569212    -5.361685    3.228649    22.163328    2.729272    8.606249    -1.314780    4.041062    -1.834693    5.143320    4.054836    0.776119    2.258531    11.048376    -4.456353    -3.223183    2.481796    -3.817840    3.764909    -13.218005    18.543402    0.000000    0.000000    0.000000    -5.020817    6.720246    -1.161711    3.101557    5.360316    1.015435    2.042310    -13.160807    -19.282625    0.000000    0.000000    0.000000    
0.499448    85.117325    -2.175932    0.118774    -2.663342    0.329786    -1.397956    -3.015013    -0.743319    1.693655    2.412356    -0.742198    -2.760714    14.431974    -0.045680    1.595224    -12.070855    0.407737    20.033789    -2.183413    2.680513    -30.176939    2.106609    -6.097547    2.398865    -0.272148    1.531955    -9.372326    -0.064205    -2.929098    -18.581715    -5.380469    3.227918    22.168108    2.734861    8.627269    -1.380481    4.201482    -1.885655    5.390156    4.218621    0.847800    2.266216    11.055165    -4.450274    -3.217898    2.453219    -3.788102    3.736256    -13.226151    18.526201    0.000000    0.000000    0.000000    -5.010636    6.714804    -1.173042    3.099945    5.361870    1.030692    2.049474    -13.167668    -19.293526    0.000000    0.000000    0.000000    
0.499693    85.116287    -2.168960    0.110701    -2.656530    0.335158    -1.414127    -3.034380    -0.749364    1.723540    2.420424    -0.748368    -2.721214    14.412512    -0.076783    1.590039    -11.960984    0.355120    20.036314    -2.187757    2.674815    -30.185879    2.129660    -6.100959    2.390480    -0.269059    1.553868    -9.353926    -0.062579    -2.921867    -18.592100    -5.390903    3.228035    22.169451    2.785649    8.645328    -1.410285    4.194850    -1.870786    5.385855    4.211750    0.849719    2.272527    11.067803    -4.440151    -3.207638    2.428762    -3.840440    3.744122    -13.223996    18.554544    0.000000    0.000000    0.000000    -5.004192    6.718544    -1.175964    3.102566    5.353854    1.043625    2.047202    -13.164474    -19.306147    0.000000    0.000000    0.000000    
0.500419    85.114578    -2.162438    0.103880    -2.645473    0.337450    -1.429378    -3.055704    -0.752093    1.754294    2.421665    -0.751048    -2.708384    14.403710    -0.099680    1.609754    -11.857862    0.334981    20.025963    -2.186163    2.655893    -30.183132    2.114534    -6.102762    2.365528    -0.255650    1.585135    -9.348713    -0.050177    -2.915024    -18.600229    -5.407836    3.216732    22.162970    2.756224    8.667193    -1.396852    4.226672    -1.856797    5.369439    4.245344    0.881899    2.277126    11.084669    -4.458994    -3.205266    2.379981    -3.744734    3.727389    -13.214191    18.482613    0.000000    0.000000    0.000000    -4.997890    6.714611    -1.185952    3.102729    5.349611    1.038352    2.050568    -13.161502    -19.296755    0.000000    0.000000    0.000000    
0.503333    85.113564    -2.156904    0.100051    -2.632233    0.340792    -1.450721    -3.081868    -0.758659    1.796678    2.429213    -0.757778    -2.692858    14.418278    -0.100843    1.582637    -11.799652    0.324527    20.018684    -2.199907    2.648427    -30.195831    2.135114    -6.099089    2.350064    -0.271901    1.599436    -9.351578    -0.068779    -2.884149    -18.620823    -5.425242    3.215403    22.166281    2.799878    8.688407    -1.447619    4.205058    -1.847556    5.399932    4.225434    0.928273    2.277378    11.094136    -4.490268    -3.200311    2.343709    -3.720253    3.733696    -13.206244    18.489511    0.000000    0.000000    0.000000    -5.000017    6.707599    -1.188428    3.111269    5.348431    1.044847    2.046232    -13.166402    -19.304407    0.000000    0.000000    0.000000    
0.503336    85.112350    -2.149813    0.090895    -2.617419    0.336787    -1.461286    -3.110774    -0.759856    1.823065    2.435512    -0.758952    -2.678448    14.417212    -0.084241    1.562180    -11.719959    0.336239    20.024652    -2.201555    2.636347    -30.209558    2.125896    -6.097250    2.320606    -0.277582    1.614205    -9.357821    -0.075446    -2.870445    -18.626551    -5.431450    3.198457    22.161360    2.817234    8.722610    -1.493480    4.182199    -1.815257    5.433573    4.203062    0.939504    2.283774    11.099059    -4.458546    -3.190489    2.324724    -3.785818    3.738412    -13.209065    18.519979    0.000000    0.000000    0.000000    -4.990836    6.700934    -1.188399    3.109537    5.341923    1.059680    2.049367    -13.164906    -19.316383    0.000000    0.000000    0.000000    
0.506041    85.111626    -2.145613    0.085547    -2.608871    0.333541    -1.468132    -3.128388    -0.762573    1.844379    2.437171    -0.761699    -2.681946    14.438679    -0.044215    1.541633    -11.678080    0.382036    20.025322    -2.193074    2.624122    -30.218702    2.090355    -6.100530    2.283963    -0.276364    1.637751    -9.366636    -0.074036    -2.866929    -18.633139    -5.451427    3.199410    22.154354    2.817693    8.732784    -1.524040    4.163752    -1.776738    5.433277    4.185783    0.963474    2.283546    11.113896    -4.492436    -3.183504    2.280600    -3.697451    3.726838    -13.198327    18.469280    0.000000    0.000000    0.000000    -4.991341    6.695142    -1.181632    3.118702    5.341257    1.049320    2.035412    -13.163241    -19.314541    0.000000    0.000000    0.000000    
0.507102    85.111328    -2.139992    0.077900    -2.602218    0.333640    -1.470992    -3.143739    -0.765552    1.858511    2.436722    -0.764757    -2.677662    14.464198    -0.001564    1.490884    -11.624489    0.404290    20.026024    -2.179612    2.615488    -30.221304    2.040443    -6.115697    2.240877    -0.268046    1.667772    -9.379894    -0.065456    -2.868706    -18.633440    -5.449391    3.193500    22.145830    2.827572    8.762650    -1.571867    4.133994    -1.750800    5.446514    4.156945    0.988585    2.291145    11.124786    -4.509256    -3.177386    2.253234    -3.669051    3.712926    -13.192775    18.422422    0.000000    0.000000    0.000000    -4.982925    6.694776    -1.173334    3.114400    5.336180    1.041303    2.050365    -13.159863    -19.309685    0.000000    0.000000    0.000000    
0.509687    85.110832    -2.135594    0.072833    -2.595421    0.333530    -1.474630    -3.158942    -0.769750    1.873903    2.435782    -0.768919    -2.682745    14.472733    0.072791    1.444041    -11.565038    0.468565    20.026903    -2.188966    2.606478    -30.226801    2.025814    -6.121294    2.204450    -0.261230    1.716326    -9.403050    -0.056485    -2.890843    -18.635372    -5.445045    3.199517    22.129892    2.834397    8.781222    -1.606071    4.126675    -1.714023    5.440759    4.149354    0.984008    2.291548    11.132808    -4.510316    -3.173745    2.231821    -3.647874    3.694707    -13.193750    18.432756    0.000000    0.000000    0.000000    -4.979281    6.691593    -1.183149    3.114483    5.334628    1.050029    2.053301    -13.159488    -19.312750    0.000000    0.000000    0.000000    
0.512525    85.110336    -2.132632    0.071342    -2.595420    0.323894    -1.476242    -3.158805    -0.766632    1.881515    2.426860    -0.765774    -2.682529    14.502096    0.149870    1.373361    -11.545125    0.530823    20.027863    -2.184548    2.600389    -30.229000    1.991796    -6.130594    2.169059    -0.252464    1.734660    -9.421664    -0.047030    -2.893008    -18.636433    -5.435216    3.201717    22.113750    2.865176    8.798681    -1.643767    4.119924    -1.673942    5.429299    4.140011    0.931285    2.290445    11.140454    -4.493909    -3.173516    2.223473    -3.633895    3.700878    -13.188994    18.401436    0.000000    0.000000    0.000000    -4.979713    6.689713    -1.179953    3.110131    5.339015    1.046019    2.054439    -13.160730    -19.298244    0.000000    0.000000    0.000000    
0.515948    85.110466    -2.129301    0.069673    -2.593845    0.324975    -1.477255    -3.164038    -0.769083    1.888779    2.425976    -0.768246    -2.680114    14.529984    0.233559    1.292689    -11.537433    0.597588    20.026621    -2.188823    2.602011    -30.228315    1.980614    -6.147333    2.140672    -0.248207    1.763550    -9.440521    -0.041804    -2.901143    -18.638025    -5.429711    3.202012    22.091635    2.890584    8.819606    -1.666665    4.134257    -1.655251    5.387975    4.152889    0.908635    2.289215    11.143676    -4.477679    -3.170755    2.218719    -3.649582    3.697222    -13.192428    18.381550    0.000000    0.000000    0.000000    -4.981816    6.690711    -1.184919    3.112114    5.340049    1.063747    2.068899    -13.159409    -19.315191    0.000000    0.000000    0.000000    
0.519530    85.109550    -2.127378    0.069761    -2.594542    0.322286    -1.474476    -3.167471    -0.769789    1.885171    2.429142    -0.769004    -2.481213    14.135951    0.386424    0.895878    -10.899263    0.662187    20.026768    -2.191140    2.595302    -30.223160    1.954534    -6.154040    2.114339    -0.235439    1.782851    -9.460225    -0.028798    -2.897586    -18.635502    -5.427892    3.205428    22.069536    2.910926    8.837323    -1.685851    4.152222    -1.637060    5.324531    4.169056    0.880538    2.286326    11.141932    -4.455710    -3.169982    2.229640    -3.680708    3.687804    -13.200165    18.416964    0.000000    0.000000    0.000000    -4.982816    6.689520    -1.185793    3.108359    5.346517    1.067826    2.060106    -13.166740    -19.312523    0.000000    0.000000    0.000000    
0.520824    85.107376    -2.130088    0.063853    -2.584477    0.329320    -1.471702    -3.171567    -0.774714    1.889572    2.421883    -0.773927    -2.667898    14.488007    0.402861    1.120466    -11.375718    0.731489    20.019533    -2.182291    2.583611    -30.219217    1.958076    -6.161441    2.118685    -0.238601    1.794256    -9.486247    -0.031813    -2.892441    -18.637318    -5.421563    3.212562    22.048737    2.930706    8.845956    -1.708269    4.160973    -1.628904    5.271529    4.177863    0.894918    2.299196    11.124772    -4.485104    -3.184901    2.233886    -3.643303    3.725856    -13.198661    18.383455    0.000000    0.000000    0.000000    -4.974537    6.674286    -1.201654    3.103057    5.355186    1.072247    2.060435    -13.173423    -19.311138    0.000000    0.000000    0.000000    
